<?xml version="1.0" encoding="UTF-8" standalone="no"?>
<!DOCTYPE svg PUBLIC "-//W3C//DTD SVG 1.1//EN"
 "http://www.w3.org/Graphics/SVG/1.1/DTD/svg11.dtd">
<!-- Generated by graphviz version 2.47.1 (20210418.0311)
 -->
<!-- Title: snakemake_dag Pages: 1 -->
<svg width="542pt" height="998pt"
 viewBox="0.00 0.00 542.00 998.00" xmlns="http://www.w3.org/2000/svg" xmlns:xlink="http://www.w3.org/1999/xlink">
<g id="graph0" class="graph" transform="scale(1 1) rotate(0) translate(4 994)">
<title>snakemake_dag</title>
<polygon fill="white" stroke="transparent" points="-4,4 -4,-994 538,-994 538,4 -4,4"/>
<!-- 0 -->
<g id="node1" class="node">
<title>0</title>
<text text-anchor="start" x="196" y="-129.6" font-family="sans" font-weight="bold" font-size="18.00">exonerate_to_genes</text>
<text text-anchor="start" x="145.5" y="-105.8" font-family="sans" font-size="10.00"> </text>
<text text-anchor="start" x="149.5" y="-105.8" font-family="sans" font-weight="bold" font-size="14.00">↪ input</text>
<text text-anchor="start" x="210.5" y="-105.8" font-family="sans" font-size="10.00"> </text>
<text text-anchor="start" x="145.5" y="-86" font-family="monospace" font-size="10.00">/mnt/shared/scratch/kleempoe/paftol/mega_353.fasta</text>
<text text-anchor="start" x="145.5" y="-68" font-family="monospace" font-size="10.00">Alignments/{sample}.aln</text>
<text text-anchor="start" x="365.5" y="-47.8" font-family="sans" font-size="10.00"> </text>
<text text-anchor="start" x="369.5" y="-47.8" font-family="sans" font-weight="bold" font-size="14.00">output →</text>
<text text-anchor="start" x="442.5" y="-47.8" font-family="sans" font-size="10.00"> </text>
<text text-anchor="start" x="145.5" y="-28" font-family="monospace" font-size="10.00">out_fasta/{sample}.fasta</text>
<text text-anchor="start" x="145.5" y="-10" font-family="monospace" font-size="10.00">stats/{sample}_exonerate_stats.csv</text>
<polygon fill="#5798d9" stroke="#5798d9" points="139.5,-120 139.5,-120 453.5,-120 453.5,-120 139.5,-120"/>
<polygon fill="#5798d9" stroke="#5798d9" points="139.5,-62 139.5,-62 453.5,-62 453.5,-62 139.5,-62"/>
<polygon fill="none" stroke="#5798d9" stroke-width="2" points="139,-1 139,-149 452,-149 452,-1 139,-1"/>
</g>
<!-- 1 -->
<g id="node2" class="node">
<title>1</title>
<text text-anchor="start" x="245" y="-297.6" font-family="sans" font-weight="bold" font-size="18.00">exonerate</text>
<text text-anchor="start" x="202.5" y="-273.8" font-family="sans" font-size="10.00"> </text>
<text text-anchor="start" x="206.5" y="-273.8" font-family="sans" font-weight="bold" font-size="14.00">↪ input</text>
<text text-anchor="start" x="267.5" y="-273.8" font-family="sans" font-size="10.00"> </text>
<text text-anchor="start" x="202.5" y="-254" font-family="monospace" font-size="10.00">tmp/{sample}_best_contigs.fasta</text>
<text text-anchor="start" x="202.5" y="-236" font-family="monospace" font-size="10.00">tmp/{sample}_best_targets.fasta</text>
<text text-anchor="start" x="308.5" y="-215.8" font-family="sans" font-size="10.00"> </text>
<text text-anchor="start" x="312.5" y="-215.8" font-family="sans" font-weight="bold" font-size="14.00">output →</text>
<text text-anchor="start" x="385.5" y="-215.8" font-family="sans" font-size="10.00"> </text>
<text text-anchor="start" x="202.5" y="-196" font-family="monospace" font-size="10.00">Alignments/{sample}.aln</text>
<polygon fill="#d99857" stroke="#d99857" points="196.5,-288 196.5,-288 396.5,-288 396.5,-288 196.5,-288"/>
<polygon fill="#d99857" stroke="#d99857" points="196.5,-230 196.5,-230 396.5,-230 396.5,-230 196.5,-230"/>
<polygon fill="none" stroke="#d99857" stroke-width="2" points="196,-187 196,-317 395,-317 395,-187 196,-187"/>
</g>
<!-- 1&#45;&gt;0 -->
<g id="edge1" class="edge">
<title>1&#45;&gt;0</title>
<path fill="none" stroke="grey" stroke-width="2" d="M295.5,-185.84C295.5,-177.45 295.5,-168.78 295.5,-160.15"/>
<polygon fill="grey" stroke="grey" stroke-width="2" points="299,-160.06 295.5,-150.06 292,-160.06 299,-160.06"/>
</g>
<!-- 2 -->
<g id="node3" class="node">
<title>2</title>
<text text-anchor="start" x="83.5" y="-465.6" font-family="sans" font-weight="bold" font-size="18.00">subset_targets</text>
<text text-anchor="start" x="7.5" y="-441.8" font-family="sans" font-size="10.00"> </text>
<text text-anchor="start" x="11.5" y="-441.8" font-family="sans" font-weight="bold" font-size="14.00">↪ input</text>
<text text-anchor="start" x="72.5" y="-441.8" font-family="sans" font-size="10.00"> </text>
<text text-anchor="start" x="7.5" y="-422" font-family="monospace" font-size="10.00">/mnt/shared/scratch/kleempoe/paftol/mega_353.fasta</text>
<text text-anchor="start" x="7.5" y="-404" font-family="monospace" font-size="10.00">tmp/{sample}.targetstxt</text>
<text text-anchor="start" x="227.5" y="-383.8" font-family="sans" font-size="10.00"> </text>
<text text-anchor="start" x="231.5" y="-383.8" font-family="sans" font-weight="bold" font-size="14.00">output →</text>
<text text-anchor="start" x="304.5" y="-383.8" font-family="sans" font-size="10.00"> </text>
<text text-anchor="start" x="7.5" y="-364" font-family="monospace" font-size="10.00">tmp/{sample}_best_targets.fasta</text>
<polygon fill="#57d957" stroke="#57d957" points="1.5,-456 1.5,-456 315.5,-456 315.5,-456 1.5,-456"/>
<polygon fill="#57d957" stroke="#57d957" points="1.5,-398 1.5,-398 315.5,-398 315.5,-398 1.5,-398"/>
<polygon fill="none" stroke="#57d957" stroke-width="2" points="1,-355 1,-485 314,-485 314,-355 1,-355"/>
</g>
<!-- 2&#45;&gt;1 -->
<g id="edge2" class="edge">
<title>2&#45;&gt;1</title>
<path fill="none" stroke="grey" stroke-width="2" d="M211.65,-353.87C219.26,-344.71 227.12,-335.26 234.84,-325.97"/>
<polygon fill="grey" stroke="grey" stroke-width="2" points="237.58,-328.14 241.28,-318.22 232.2,-323.67 237.58,-328.14"/>
</g>
<!-- 3 -->
<g id="node4" class="node">
<title>3</title>
<text text-anchor="start" x="187" y="-651.6" font-family="sans" font-weight="bold" font-size="18.00">get_best_hit</text>
<text text-anchor="start" x="157.5" y="-627.8" font-family="sans" font-size="10.00"> </text>
<text text-anchor="start" x="161.5" y="-627.8" font-family="sans" font-weight="bold" font-size="14.00">↪ input</text>
<text text-anchor="start" x="222.5" y="-627.8" font-family="sans" font-size="10.00"> </text>
<text text-anchor="start" x="157.5" y="-608" font-family="monospace" font-size="10.00">tmp/{sample}.blast</text>
<text text-anchor="start" x="257.5" y="-587.8" font-family="sans" font-size="10.00"> </text>
<text text-anchor="start" x="261.5" y="-587.8" font-family="sans" font-weight="bold" font-size="14.00">output →</text>
<text text-anchor="start" x="334.5" y="-587.8" font-family="sans" font-size="10.00"> </text>
<text text-anchor="start" x="157.5" y="-568" font-family="monospace" font-size="10.00">stats/{sample}_blast_stats.csv</text>
<text text-anchor="start" x="157.5" y="-550" font-family="monospace" font-size="10.00">tmp/{sample}.contigstxt</text>
<text text-anchor="start" x="157.5" y="-532" font-family="monospace" font-size="10.00">tmp/{sample}.targetstxt</text>
<polygon fill="#98d957" stroke="#98d957" points="151.5,-642 151.5,-642 345.5,-642 345.5,-642 151.5,-642"/>
<polygon fill="#98d957" stroke="#98d957" points="151.5,-602 151.5,-602 345.5,-602 345.5,-602 151.5,-602"/>
<polygon fill="none" stroke="#98d957" stroke-width="2" points="151,-523 151,-671 344,-671 344,-523 151,-523"/>
</g>
<!-- 3&#45;&gt;2 -->
<g id="edge4" class="edge">
<title>3&#45;&gt;2</title>
<path fill="none" stroke="grey" stroke-width="2" d="M209.33,-521.78C204.82,-513 200.21,-504.04 195.69,-495.26"/>
<polygon fill="grey" stroke="grey" stroke-width="2" points="198.71,-493.48 191.03,-486.19 192.49,-496.68 198.71,-493.48"/>
</g>
<!-- 6 -->
<g id="node7" class="node">
<title>6</title>
<text text-anchor="start" x="359.5" y="-465.6" font-family="sans" font-weight="bold" font-size="18.00">subset_contigs</text>
<text text-anchor="start" x="340.5" y="-441.8" font-family="sans" font-size="10.00"> </text>
<text text-anchor="start" x="344.5" y="-441.8" font-family="sans" font-weight="bold" font-size="14.00">↪ input</text>
<text text-anchor="start" x="405.5" y="-441.8" font-family="sans" font-size="10.00"> </text>
<text text-anchor="start" x="340.5" y="-422" font-family="monospace" font-size="10.00">in_fasta/{sample}.fasta</text>
<text text-anchor="start" x="340.5" y="-404" font-family="monospace" font-size="10.00">tmp/{sample}.contigstxt</text>
<text text-anchor="start" x="446.5" y="-383.8" font-family="sans" font-size="10.00"> </text>
<text text-anchor="start" x="450.5" y="-383.8" font-family="sans" font-weight="bold" font-size="14.00">output →</text>
<text text-anchor="start" x="523.5" y="-383.8" font-family="sans" font-size="10.00"> </text>
<text text-anchor="start" x="340.5" y="-364" font-family="monospace" font-size="10.00">tmp/{sample}_best_contigs.fasta</text>
<polygon fill="#d9d957" stroke="#d9d957" points="334.5,-456 334.5,-456 534.5,-456 534.5,-456 334.5,-456"/>
<polygon fill="#d9d957" stroke="#d9d957" points="334.5,-398 334.5,-398 534.5,-398 534.5,-398 334.5,-398"/>
<polygon fill="none" stroke="#d9d957" stroke-width="2" points="334,-355 334,-485 533,-485 533,-355 334,-355"/>
</g>
<!-- 3&#45;&gt;6 -->
<g id="edge8" class="edge">
<title>3&#45;&gt;6</title>
<path fill="none" stroke="grey" stroke-width="2" d="M326.38,-521.78C336.5,-512.26 346.85,-502.53 356.93,-493.04"/>
<polygon fill="grey" stroke="grey" stroke-width="2" points="359.33,-495.59 364.21,-486.19 354.53,-490.49 359.33,-495.59"/>
</g>
<!-- 4 -->
<g id="node5" class="node">
<title>4</title>
<text text-anchor="start" x="216.5" y="-819.6" font-family="sans" font-weight="bold" font-size="18.00">blastn</text>
<text text-anchor="start" x="97.5" y="-795.8" font-family="sans" font-size="10.00"> </text>
<text text-anchor="start" x="101.5" y="-795.8" font-family="sans" font-weight="bold" font-size="14.00">↪ input</text>
<text text-anchor="start" x="162.5" y="-795.8" font-family="sans" font-size="10.00"> </text>
<text text-anchor="start" x="97.5" y="-776" font-family="monospace" font-size="10.00">/mnt/shared/scratch/kleempoe/paftol/mega_353.fasta</text>
<text text-anchor="start" x="97.5" y="-758" font-family="monospace" font-size="10.00">in_fasta/{sample}.fasta</text>
<text text-anchor="start" x="317.5" y="-737.8" font-family="sans" font-size="10.00"> </text>
<text text-anchor="start" x="321.5" y="-737.8" font-family="sans" font-weight="bold" font-size="14.00">output →</text>
<text text-anchor="start" x="394.5" y="-737.8" font-family="sans" font-size="10.00"> </text>
<text text-anchor="start" x="97.5" y="-718" font-family="monospace" font-size="10.00">tmp/{sample}.blast</text>
<polygon fill="#57d998" stroke="#57d998" points="91.5,-810 91.5,-810 405.5,-810 405.5,-810 91.5,-810"/>
<polygon fill="#57d998" stroke="#57d998" points="91.5,-752 91.5,-752 405.5,-752 405.5,-752 91.5,-752"/>
<polygon fill="none" stroke="#57d998" stroke-width="2" points="91,-709 91,-839 404,-839 404,-709 91,-709"/>
</g>
<!-- 4&#45;&gt;3 -->
<g id="edge5" class="edge">
<title>4&#45;&gt;3</title>
<path fill="none" stroke="grey" stroke-width="2" d="M247.5,-707.84C247.5,-699.45 247.5,-690.78 247.5,-682.15"/>
<polygon fill="grey" stroke="grey" stroke-width="2" points="251,-682.06 247.5,-672.06 244,-682.06 251,-682.06"/>
</g>
<!-- 5 -->
<g id="node6" class="node">
<title>5</title>
<text text-anchor="start" x="293" y="-969.6" font-family="sans" font-weight="bold" font-size="18.00">gunzipCK</text>
<text text-anchor="start" x="265.5" y="-945.8" font-family="sans" font-size="10.00"> </text>
<text text-anchor="start" x="269.5" y="-945.8" font-family="sans" font-weight="bold" font-size="14.00">↪ input</text>
<text text-anchor="start" x="330.5" y="-945.8" font-family="sans" font-size="10.00"> </text>
<text text-anchor="start" x="265.5" y="-926" font-family="monospace" font-size="10.00">data_gz/{sample}.fasta.gz</text>
<text text-anchor="start" x="335.5" y="-905.8" font-family="sans" font-size="10.00"> </text>
<text text-anchor="start" x="339.5" y="-905.8" font-family="sans" font-weight="bold" font-size="14.00">output →</text>
<text text-anchor="start" x="412.5" y="-905.8" font-family="sans" font-size="10.00"> </text>
<text text-anchor="start" x="265.5" y="-886" font-family="monospace" font-size="10.00">in_fasta/{sample}.fasta</text>
<polygon fill="#d95757" stroke="#d95757" points="259.5,-960 259.5,-960 423.5,-960 423.5,-960 259.5,-960"/>
<polygon fill="#d95757" stroke="#d95757" points="259.5,-920 259.5,-920 423.5,-920 423.5,-920 259.5,-920"/>
<polygon fill="none" stroke="#d95757" stroke-width="2" points="259,-877 259,-989 422,-989 422,-877 259,-877"/>
</g>
<!-- 5&#45;&gt;4 -->
<g id="edge6" class="edge">
<title>5&#45;&gt;4</title>
<path fill="none" stroke="grey" stroke-width="2" d="M307.19,-875.76C302.01,-867.03 296.6,-857.89 291.24,-848.84"/>
<polygon fill="grey" stroke="grey" stroke-width="2" points="294.23,-847.02 286.12,-840.2 288.21,-850.59 294.23,-847.02"/>
</g>
<!-- 5&#45;&gt;6 -->
<g id="edge7" class="edge">
<title>5&#45;&gt;6</title>
<path fill="none" stroke="grey" stroke-width="2" d="M394.56,-875.85C402.59,-864.71 409.75,-852.56 414.5,-840 457.53,-726.16 452.47,-582.37 443.78,-496.26"/>
<polygon fill="grey" stroke="grey" stroke-width="2" points="447.26,-495.89 442.73,-486.31 440.29,-496.62 447.26,-495.89"/>
</g>
<!-- 6&#45;&gt;1 -->
<g id="edge3" class="edge">
<title>6&#45;&gt;1</title>
<path fill="none" stroke="grey" stroke-width="2" d="M379.35,-353.87C371.74,-344.71 363.88,-335.26 356.16,-325.97"/>
<polygon fill="grey" stroke="grey" stroke-width="2" points="358.8,-323.67 349.72,-318.22 353.42,-328.14 358.8,-323.67"/>
</g>
</g>
</svg>
