<?xml version="1.0" encoding="UTF-8" standalone="no"?>
<!DOCTYPE svg PUBLIC "-//W3C//DTD SVG 1.1//EN"
 "http://www.w3.org/Graphics/SVG/1.1/DTD/svg11.dtd">
<!-- Generated by graphviz version 2.47.1 (20210418.0311)
 -->
<!-- Title: snakemake_dag Pages: 1 -->
<svg width="204pt" height="404pt"
 viewBox="0.00 0.00 204.00 404.00" xmlns="http://www.w3.org/2000/svg" xmlns:xlink="http://www.w3.org/1999/xlink">
<g id="graph0" class="graph" transform="scale(1 1) rotate(0) translate(4 400)">
<title>snakemake_dag</title>
<polygon fill="white" stroke="transparent" points="-4,4 -4,-400 200,-400 200,4 -4,4"/>
<!-- 0 -->
<g id="node1" class="node">
<title>0</title>
<path fill="none" stroke="#d89556" stroke-width="2" d="M143.5,-36C143.5,-36 51.5,-36 51.5,-36 45.5,-36 39.5,-30 39.5,-24 39.5,-24 39.5,-12 39.5,-12 39.5,-6 45.5,0 51.5,0 51.5,0 143.5,0 143.5,0 149.5,0 155.5,-6 155.5,-12 155.5,-12 155.5,-24 155.5,-24 155.5,-30 149.5,-36 143.5,-36"/>
<text text-anchor="middle" x="97.5" y="-15.5" font-family="sans" font-size="10.00">exonerate_to_genes</text>
</g>
<!-- 1 -->
<g id="node2" class="node">
<title>1</title>
<path fill="none" stroke="#569ad8" stroke-width="2" d="M118.5,-108C118.5,-108 76.5,-108 76.5,-108 70.5,-108 64.5,-102 64.5,-96 64.5,-96 64.5,-84 64.5,-84 64.5,-78 70.5,-72 76.5,-72 76.5,-72 118.5,-72 118.5,-72 124.5,-72 130.5,-78 130.5,-84 130.5,-84 130.5,-96 130.5,-96 130.5,-102 124.5,-108 118.5,-108"/>
<text text-anchor="middle" x="97.5" y="-87.5" font-family="sans" font-size="10.00">exonerate</text>
</g>
<!-- 1&#45;&gt;0 -->
<g id="edge1" class="edge">
<title>1&#45;&gt;0</title>
<path fill="none" stroke="grey" stroke-width="2" d="M97.5,-71.7C97.5,-63.98 97.5,-54.71 97.5,-46.11"/>
<polygon fill="grey" stroke="grey" stroke-width="2" points="101,-46.1 97.5,-36.1 94,-46.1 101,-46.1"/>
</g>
<!-- 2 -->
<g id="node3" class="node">
<title>2</title>
<path fill="none" stroke="#56d89a" stroke-width="2" d="M77,-180C77,-180 12,-180 12,-180 6,-180 0,-174 0,-168 0,-168 0,-156 0,-156 0,-150 6,-144 12,-144 12,-144 77,-144 77,-144 83,-144 89,-150 89,-156 89,-156 89,-168 89,-168 89,-174 83,-180 77,-180"/>
<text text-anchor="middle" x="44.5" y="-159.5" font-family="sans" font-size="10.00">subset_targets</text>
</g>
<!-- 2&#45;&gt;1 -->
<g id="edge2" class="edge">
<title>2&#45;&gt;1</title>
<path fill="none" stroke="grey" stroke-width="2" d="M57.6,-143.7C63.89,-135.39 71.55,-125.28 78.46,-116.14"/>
<polygon fill="grey" stroke="grey" stroke-width="2" points="81.3,-118.19 84.55,-108.1 75.72,-113.96 81.3,-118.19"/>
</g>
<!-- 3 -->
<g id="node4" class="node">
<title>3</title>
<path fill="none" stroke="#d85656" stroke-width="2" d="M111,-252C111,-252 58,-252 58,-252 52,-252 46,-246 46,-240 46,-240 46,-228 46,-228 46,-222 52,-216 58,-216 58,-216 111,-216 111,-216 117,-216 123,-222 123,-228 123,-228 123,-240 123,-240 123,-246 117,-252 111,-252"/>
<text text-anchor="middle" x="84.5" y="-231.5" font-family="sans" font-size="10.00">get_best_hit</text>
</g>
<!-- 3&#45;&gt;2 -->
<g id="edge4" class="edge">
<title>3&#45;&gt;2</title>
<path fill="none" stroke="grey" stroke-width="2" d="M74.61,-215.7C70.01,-207.64 64.44,-197.89 59.35,-188.98"/>
<polygon fill="grey" stroke="grey" stroke-width="2" points="62.27,-187.05 54.27,-180.1 56.2,-190.52 62.27,-187.05"/>
</g>
<!-- 6 -->
<g id="node7" class="node">
<title>6</title>
<path fill="none" stroke="#d6d856" stroke-width="2" d="M184,-180C184,-180 119,-180 119,-180 113,-180 107,-174 107,-168 107,-168 107,-156 107,-156 107,-150 113,-144 119,-144 119,-144 184,-144 184,-144 190,-144 196,-150 196,-156 196,-156 196,-168 196,-168 196,-174 190,-180 184,-180"/>
<text text-anchor="middle" x="151.5" y="-159.5" font-family="sans" font-size="10.00">subset_contigs</text>
</g>
<!-- 3&#45;&gt;6 -->
<g id="edge7" class="edge">
<title>3&#45;&gt;6</title>
<path fill="none" stroke="grey" stroke-width="2" d="M101.06,-215.7C109.18,-207.22 119.09,-196.86 127.97,-187.58"/>
<polygon fill="grey" stroke="grey" stroke-width="2" points="130.74,-189.75 135.13,-180.1 125.69,-184.91 130.74,-189.75"/>
</g>
<!-- 4 -->
<g id="node5" class="node">
<title>4</title>
<path fill="none" stroke="#97d856" stroke-width="2" d="M105.5,-324C105.5,-324 75.5,-324 75.5,-324 69.5,-324 63.5,-318 63.5,-312 63.5,-312 63.5,-300 63.5,-300 63.5,-294 69.5,-288 75.5,-288 75.5,-288 105.5,-288 105.5,-288 111.5,-288 117.5,-294 117.5,-300 117.5,-300 117.5,-312 117.5,-312 117.5,-318 111.5,-324 105.5,-324"/>
<text text-anchor="middle" x="90.5" y="-303.5" font-family="sans" font-size="10.00">blastn</text>
</g>
<!-- 4&#45;&gt;3 -->
<g id="edge5" class="edge">
<title>4&#45;&gt;3</title>
<path fill="none" stroke="grey" stroke-width="2" d="M89.02,-287.7C88.36,-279.98 87.56,-270.71 86.82,-262.11"/>
<polygon fill="grey" stroke="grey" stroke-width="2" points="90.31,-261.77 85.97,-252.1 83.33,-262.37 90.31,-261.77"/>
</g>
<!-- 5 -->
<g id="node6" class="node">
<title>5</title>
<path fill="none" stroke="#59d856" stroke-width="2" d="M136.5,-396C136.5,-396 98.5,-396 98.5,-396 92.5,-396 86.5,-390 86.5,-384 86.5,-384 86.5,-372 86.5,-372 86.5,-366 92.5,-360 98.5,-360 98.5,-360 136.5,-360 136.5,-360 142.5,-360 148.5,-366 148.5,-372 148.5,-372 148.5,-384 148.5,-384 148.5,-390 142.5,-396 136.5,-396"/>
<text text-anchor="middle" x="117.5" y="-375.5" font-family="sans" font-size="10.00">gunzipCK</text>
</g>
<!-- 5&#45;&gt;4 -->
<g id="edge6" class="edge">
<title>5&#45;&gt;4</title>
<path fill="none" stroke="grey" stroke-width="2" d="M110.83,-359.7C107.79,-351.81 104.12,-342.3 100.74,-333.55"/>
<polygon fill="grey" stroke="grey" stroke-width="2" points="103.96,-332.17 97.1,-324.1 97.43,-334.69 103.96,-332.17"/>
</g>
<!-- 5&#45;&gt;6 -->
<g id="edge8" class="edge">
<title>5&#45;&gt;6</title>
<path fill="none" stroke="grey" stroke-width="2" d="M120.48,-359.82C122.26,-349.46 124.55,-335.98 126.5,-324 134.12,-277.09 142.51,-222.41 147.37,-190.36"/>
<polygon fill="grey" stroke="grey" stroke-width="2" points="150.84,-190.82 148.88,-180.4 143.92,-189.77 150.84,-190.82"/>
</g>
<!-- 6&#45;&gt;1 -->
<g id="edge3" class="edge">
<title>6&#45;&gt;1</title>
<path fill="none" stroke="grey" stroke-width="2" d="M138.15,-143.7C131.74,-135.39 123.94,-125.28 116.89,-116.14"/>
<polygon fill="grey" stroke="grey" stroke-width="2" points="119.57,-113.88 110.69,-108.1 114.03,-118.16 119.57,-113.88"/>
</g>
</g>
</svg>
